HIERARCHY
ROOT Hips
{
	OFFSET 0.00000 0.00000 0.00000
	CHANNELS 6 Xposition Yposition Zposition Zrotation Yrotation Xrotation 
	JOINT LHipJoint
	{
		OFFSET 0 0 0
		CHANNELS 3 Zrotation Yrotation Xrotation
		JOINT LeftUpLeg
		{
			OFFSET 1.64549 -1.70879 0.84566
			CHANNELS 3 Zrotation Yrotation Xrotation
			JOINT LeftLeg
			{
				OFFSET 2.24963 -6.18082 0.00000
				CHANNELS 3 Zrotation Yrotation Xrotation
				JOINT LeftFoot
				{
					OFFSET 2.71775 -7.46697 0.00000
					CHANNELS 3 Zrotation Yrotation Xrotation
					JOINT LeftToeBase
					{
						OFFSET 0.18768 -0.51564 2.24737
						CHANNELS 3 Zrotation Yrotation Xrotation
						End Site
						{
							OFFSET 0.00000 -0.00000 1.15935
						}
					}
				}
			}
		}
	}
	JOINT RHipJoint
	{
		OFFSET 0 0 0
		CHANNELS 3 Zrotation Yrotation Xrotation
		JOINT RightUpLeg
		{
			OFFSET -1.58830 -1.70879 0.84566
			CHANNELS 3 Zrotation Yrotation Xrotation
			JOINT RightLeg
			{
				OFFSET -2.25006 -6.18201 0.00000
				CHANNELS 3 Zrotation Yrotation Xrotation
				JOINT RightFoot
				{
					OFFSET -2.72829 -7.49593 0.00000
					CHANNELS 3 Zrotation Yrotation Xrotation
					JOINT RightToeBase
					{
						OFFSET -0.21541 -0.59185 2.10643
						CHANNELS 3 Zrotation Yrotation Xrotation
						End Site
						{
							OFFSET -0.00000 -0.00000 1.09838
						}
					}
				}
			}
		}
	}
	JOINT LowerBack
	{
		OFFSET 0 0 0
		CHANNELS 3 Zrotation Yrotation Xrotation
		JOINT Spine
		{
			OFFSET 0.03142 2.10496 -0.11038
			CHANNELS 3 Zrotation Yrotation Xrotation
			JOINT Spine1
			{
				OFFSET -0.01863 2.10897 -0.06956
				CHANNELS 3 Zrotation Yrotation Xrotation
				JOINT Neck
				{
					OFFSET 0 0 0
					CHANNELS 3 Zrotation Yrotation Xrotation
					JOINT Neck1
					{
						OFFSET -0.02267 1.73238 0.00451
						CHANNELS 3 Zrotation Yrotation Xrotation
						JOINT Head
						{
							OFFSET -0.05808 1.54724 -0.61749
							CHANNELS 3 Zrotation Yrotation Xrotation
							End Site
							{
								OFFSET -0.01396 1.71468 -0.21082
							}
						}
					}
				}
				JOINT LeftShoulder
				{
					OFFSET 0 0 0
					CHANNELS 3 Zrotation Yrotation Xrotation
					JOINT LeftArm
					{
						OFFSET 3.44898 0.50298 0.21920
						CHANNELS 3 Zrotation Yrotation Xrotation
						JOINT LeftForeArm
						{
							OFFSET 5.41917 -0.00000 -0.00000
							CHANNELS 3 Zrotation Yrotation Xrotation
							JOINT LeftHand
							{
								OFFSET 2.44373 -0.00000 0.00000
								CHANNELS 3 Zrotation Yrotation Xrotation
								JOINT LeftFingerBase
								{
									OFFSET 0 0 0
									CHANNELS 3 Zrotation Yrotation Xrotation
									JOINT LeftHandIndex1
									{
										OFFSET 0.72750 -0.00000 0.00000
										CHANNELS 3 Zrotation Yrotation Xrotation
										End Site
										{
											OFFSET 0.58653 -0.00000 0.00000
										}
									}
								}
								JOINT LThumb
								{
									OFFSET 0 0 0
									CHANNELS 3 Zrotation Yrotation Xrotation
									End Site
									{
										OFFSET 0.59549 -0.00000 0.59549
									}
								}
							}
						}
					}
				}
				JOINT RightShoulder
				{
					OFFSET 0 0 0
					CHANNELS 3 Zrotation Yrotation Xrotation
					JOINT RightArm
					{
						OFFSET -3.23015 0.55830 0.31051
						CHANNELS 3 Zrotation Yrotation Xrotation
						JOINT RightForeArm
						{
							OFFSET -5.58976 -0.00010 0.00014
							CHANNELS 3 Zrotation Yrotation Xrotation
							JOINT RightHand
							{
								OFFSET -2.48060 -0.00000 0.00000
								CHANNELS 3 Zrotation Yrotation Xrotation
								JOINT RightFingerBase
								{
									OFFSET 0 0 0
									CHANNELS 3 Zrotation Yrotation Xrotation
									JOINT RightHandIndex1
									{
										OFFSET -0.81601 -0.00000 0.00000
										CHANNELS 3 Zrotation Yrotation Xrotation
										End Site
										{
											OFFSET -0.65789 -0.00000 0.00000
										}
									}
								}
								JOINT RThumb
								{
									OFFSET 0 0 0
									CHANNELS 3 Zrotation Yrotation Xrotation
									End Site
									{
										OFFSET -0.66793 -0.00000 0.66793
									}
								}
							}
						}
					}
				}
			}
		}
	}
}
MOTION
Frames: 6
Frame Time: 0.008333
-1.087000 16.181800 -4.248300 363.635000 3.949000 18.216900 0.000000 0.000000 0.000000 -26.646100 -3.251300 -0.873400 0.718800 5.417700 15.103900 1.508600 11.614500 -29.957000 2.582000 -9.985600 -28.930000 0.000000 0.000000 0.000000 3.835800 22.275300 -52.413100 -2.219600 -9.309300 26.767800 -5.706800 -25.630000 -57.437100 -7.742900 -15.926900 51.631300 -3.359000 -4.679300 -6.975900 0.929400 -6.109300 -7.925400 2.598900 -2.885500 -3.897700 0.970600 3.423900 -8.445100 -0.161100 4.798100 33.959000 0.386800 2.206000 12.697600 -0.000000 -0.000000 0.000000 -36.474400 -0.472400 102.781500 115.512400 -57.391800 -81.900900 -0.000000 0.000000 -47.518500 -37.762100 19.771900 -14.683400 -7.125000 0.000000 -0.000000 -54.260300 42.165000 5.858500 -0.000000 -0.000000 0.000000 49.280500 -27.917000 47.674200 -36.744600 46.018500 -16.056000 0.000000 -0.000000 -66.746900 15.812600 6.400500 1.808300 7.125000 -0.000000 -0.000000 29.957200 -23.067500 18.422400 
-1.123000 16.216500 -4.063600 363.816000 4.350700 18.540100 0.000000 0.000000 0.000000 -26.516100 -3.487300 1.228600 0.486300 4.471700 12.407800 1.108600 12.851100 -28.286300 2.903800 -10.537700 -30.736000 0.000000 0.000000 0.000000 4.509500 21.426900 -52.056700 -2.230200 -9.330000 26.833100 -5.219200 -26.182700 -56.386300 -7.529400 -15.762000 50.849400 -3.124800 -4.837500 -7.547000 0.805300 -6.315000 -8.268700 2.301900 -2.999200 -3.971100 0.662500 3.506300 -7.775800 0.261600 4.832800 33.127900 0.577500 2.251600 12.184900 -0.000000 -0.000000 0.000000 -35.371800 -2.096900 101.442700 115.595000 -57.373800 -81.970500 -0.000000 0.000000 -47.793600 -37.556200 19.392500 -14.321600 -7.125000 0.000000 -0.000000 -53.866500 41.903800 6.326400 -0.000000 -0.000000 0.000000 48.101600 -28.336800 48.466400 -36.268300 45.696800 -15.714200 0.000000 -0.000000 -66.388000 16.501400 5.863500 1.733500 7.125000 -0.000000 -0.000000 30.509300 -23.499100 18.517800 
-1.163600 16.244200 -3.879000 363.746000 4.825000 18.650300 0.000000 0.000000 0.000000 -26.031800 -3.030600 3.672800 0.264800 3.310400 9.144100 0.751000 13.501500 -26.255600 3.144400 -10.925300 -32.028300 0.000000 0.000000 0.000000 5.558000 20.616000 -51.514900 -2.238800 -9.346700 26.885900 -4.568900 -27.208100 -55.190700 -7.210200 -15.506400 49.665000 -2.672200 -4.904300 -7.945500 0.693400 -6.415600 -8.588200 1.917800 -3.070000 -4.144800 0.526100 3.543700 -7.394700 0.632500 4.793200 32.634300 0.717900 2.272400 11.887100 -0.000000 0.000000 0.000000 -34.197400 -3.880900 100.063400 115.462500 -57.402600 -81.858900 -0.000000 0.000000 -48.115300 -37.651600 19.344300 -14.336100 -7.125000 0.000000 -0.000000 -53.869100 41.846500 6.451000 -0.000000 0.000000 0.000000 47.050700 -28.976000 49.094600 -35.598500 45.234800 -15.236700 0.000000 -0.000000 -65.821900 17.487300 5.880800 1.848900 7.125000 -0.000000 -0.000000 31.101500 -23.406100 19.097300 
-1.203800 16.270400 -3.703000 363.680000 5.019400 18.878500 0.000000 0.000000 0.000000 -25.494000 -1.996000 7.029500 0.045000 1.368500 3.763300 0.385900 13.823100 -23.548500 3.361300 -11.258200 -33.155700 0.000000 0.000000 0.000000 6.514000 19.982900 -51.261300 -2.256700 -9.381500 26.996200 -3.961000 -28.118300 -54.060400 -6.900300 -15.247300 48.496200 -2.267300 -4.875700 -8.364200 0.531400 -6.391100 -8.924500 1.514300 -3.078900 -4.335200 0.570800 3.588200 -7.016500 0.921400 4.754700 31.991900 0.792000 2.305700 11.543300 -0.000000 0.000000 0.000000 -32.885500 -5.850900 98.565700 115.253800 -57.447500 -81.683000 -0.000000 0.000000 -48.475200 -37.650900 19.560400 -14.483200 -7.125000 0.000000 -0.000000 -54.041800 42.018900 6.122100 -0.000000 0.000000 0.000000 46.163300 -29.494400 49.542500 -34.677200 44.580200 -14.586300 0.000000 -0.000000 -65.043200 18.718300 6.427400 2.172200 7.125000 -0.000000 -0.000000 31.692800 -22.811000 20.146300 
-1.244300 16.304100 -3.535100 363.655000 4.922900 19.487600 0.000000 0.000000 0.000000 -25.033400 -1.262700 8.934600 0.000000 0.000000 0.000000 0.212500 13.498100 -21.504800 3.569100 -11.563800 -34.205700 0.000000 0.000000 0.000000 7.159500 19.633300 -51.439800 -2.258100 -9.384200 27.004600 -3.513800 -28.646100 -53.122900 -6.737800 -15.107000 47.875400 -2.009600 -4.864800 -9.000500 0.458000 -6.379700 -9.401700 1.269800 -3.085900 -4.533800 0.595600 3.719200 -6.614300 1.053100 4.894600 31.255600 0.828100 2.397600 11.167800 0.000000 0.000000 0.000000 -31.714300 -7.507900 96.811200 114.652400 -57.574200 -81.175800 -0.000000 0.000000 -48.533300 -37.666700 19.386600 -14.372500 -7.125000 0.000000 -0.000000 -53.909400 41.877200 6.395100 0.000000 0.000000 0.000000 45.043600 -29.771900 50.187900 -33.762000 43.907600 -13.947700 0.000000 -0.000000 -64.190200 19.978200 7.321800 2.652600 7.125000 -0.000000 -0.000000 32.192700 -21.890800 21.450500 
-1.294400 16.336700 -3.368000 363.869000 4.518600 20.334400 0.000000 0.000000 0.000000 -25.045400 -1.162200 8.486400 0.000000 -0.000000 -0.000000 0.253100 12.655600 -20.888800 3.524600 -11.499400 -33.983100 0.000000 0.000000 0.000000 7.033900 19.992900 -51.818400 -2.255400 -9.379000 26.988300 -3.299000 -29.104400 -52.848000 -6.616400 -15.000200 47.408200 -2.213400 -4.854000 -9.936400 0.409100 -6.335400 -9.932600 1.279800 -3.052400 -4.581500 0.356500 3.884700 -6.148000 1.310000 5.095700 30.542000 0.957500 2.501800 10.782000 -0.000000 -0.000000 0.000000 -30.702800 -9.090600 95.233500 113.736500 -57.760200 -80.401800 -0.000000 0.000000 -48.464300 -36.952500 19.358100 -14.001300 -7.125000 0.000000 -0.000000 -53.573900 41.994800 6.057700 -0.000000 -0.000000 0.000000 43.807100 -29.976300 50.791000 -32.908000 43.259200 -13.359000 0.000000 -0.000000 -63.426300 21.258200 7.126700 2.763300 7.125000 -0.000000 -0.000000 32.963900 -21.930800 22.164800 
